HIERARCHY
ROOT Hips
{
	OFFSET -14.64140 90.27770 -84.91600
	CHANNELS 6 Xposition Yposition Zposition Zrotation Xrotation Yrotation
	JOINT Spine
	{
		OFFSET 0.00000 13.20850 -1.60436
		CHANNELS 3 Zrotation Xrotation Yrotation
		JOINT Spine1
		{
			OFFSET 0.00000 8.61716 0.00000
			CHANNELS 3 Zrotation Xrotation Yrotation
			JOINT Spine2
			{
				OFFSET 0.00000 8.61717 0.00000
				CHANNELS 3 Zrotation Xrotation Yrotation
				JOINT Spine3
				{
					OFFSET 0.00000 8.61717 0.00000
					CHANNELS 3 Zrotation Xrotation Yrotation
					JOINT Neck
					{
						OFFSET 0.00000 11.07920 1.10792
						CHANNELS 3 Zrotation Xrotation Yrotation
						JOINT Neck1
						{
							OFFSET 0.00000 7.08032 0.00000
							CHANNELS 3 Zrotation Xrotation Yrotation
							JOINT Head
							{
								OFFSET 0.00000 7.08031 0.00000
								CHANNELS 3 Zrotation Xrotation Yrotation
								End site
								{
									OFFSET 0.00000 0.00000 0.00000
								}
							}
						}
					}
					JOINT RightShoulder
					{
						OFFSET -0.01000 7.91373 5.19711
						CHANNELS 3 Zrotation Xrotation Yrotation
						JOINT RightArm
						{
							OFFSET -18.41580 0.00000 0.00000
							CHANNELS 3 Zrotation Xrotation Yrotation
							JOINT RightForeArm
							{
								OFFSET -29.11090 0.00000 0.00000
								CHANNELS 3 Zrotation Xrotation Yrotation
								JOINT RightHand
								{
									OFFSET -24.65040 0.00000 0.00000
									CHANNELS 3 Zrotation Xrotation Yrotation
									JOINT RightHandThumb1
									{
										OFFSET -5.35114 -0.85590 3.97906
										CHANNELS 3 Zrotation Xrotation Yrotation
										JOINT RightHandThumb2
										{
											OFFSET -4.52789 0.00000 0.00000
											CHANNELS 3 Zrotation Xrotation Yrotation
											JOINT RightHandThumb3
											{
												OFFSET -2.46976 0.00000 0.00000
												CHANNELS 3 Zrotation Xrotation Yrotation
												End site
												{
													OFFSET 0.00000 0.00000 0.00000
												}
											}
										}
									}
									JOINT RightHandIndex1
									{
										OFFSET -14.26970 0.00000 2.88139
										CHANNELS 3 Zrotation Xrotation Yrotation
										JOINT RightHandIndex2
										{
											OFFSET -5.48836 0.00000 0.00000
											CHANNELS 3 Zrotation Xrotation Yrotation
											JOINT RightHandIndex3
											{
												OFFSET -3.01859 0.00000 0.00000
												CHANNELS 3 Zrotation Xrotation Yrotation
												End site
												{
													OFFSET 0.00000 0.00000 0.00000
												}
											}
										}
									}
									JOINT RightHandMiddle1
									{
										OFFSET -14.26970 0.00000 -0.09147
										CHANNELS 3 Zrotation Xrotation Yrotation
										JOINT RightHandMiddle2
										{
											OFFSET -6.17441 0.00000 0.00000
											CHANNELS 3 Zrotation Xrotation Yrotation
											JOINT RightHandMiddle3
											{
												OFFSET -3.56743 0.00000 0.00000
												CHANNELS 3 Zrotation Xrotation Yrotation
												End site
												{
													OFFSET 0.00000 0.00000 0.00000
												}
											}
										}
									}
									JOINT RightHandRing1
									{
										OFFSET -12.69180 0.00000 -3.06433
										CHANNELS 3 Zrotation Xrotation Yrotation
										JOINT RightHandRing2
										{
											OFFSET -5.62556 0.00000 0.00000
											CHANNELS 3 Zrotation Xrotation Yrotation
											JOINT RightHandRing3
											{
												OFFSET -3.56744 0.00000 0.00000
												CHANNELS 3 Zrotation Xrotation Yrotation
												End site
												{
													OFFSET 0.00000 0.00000 0.00000
												}
											}
										}
									}
									JOINT RightHandPinky1
									{
										OFFSET -11.11390 0.00000 -6.03719
										CHANNELS 3 Zrotation Xrotation Yrotation
										JOINT RightHandPinky2
										{
											OFFSET -4.52789 0.00000 0.00000
											CHANNELS 3 Zrotation Xrotation Yrotation
											JOINT RightHandPinky3
											{
												OFFSET -2.46976 0.00000 0.00000
												CHANNELS 3 Zrotation Xrotation Yrotation
												End site
												{
													OFFSET 0.00000 0.00000 0.00000
												}
											}
										}
									}
								}
							}
						}
					}
					JOINT LeftShoulder
					{
						OFFSET 0.01000 7.91373 5.19711
						CHANNELS 3 Zrotation Xrotation Yrotation
						JOINT LeftArm
						{
							OFFSET 18.41580 0.00000 0.00000
							CHANNELS 3 Zrotation Xrotation Yrotation
							JOINT LeftForeArm
							{
								OFFSET 29.11090 0.00000 0.00000
								CHANNELS 3 Zrotation Xrotation Yrotation
								JOINT LeftHand
								{
									OFFSET 24.65040 0.00000 0.00000
									CHANNELS 3 Zrotation Xrotation Yrotation
									JOINT LeftHandThumb1
									{
										OFFSET 5.35114 -0.85590 3.97906
										CHANNELS 3 Zrotation Xrotation Yrotation
										JOINT LeftHandThumb2
										{
											OFFSET 4.52789 0.00000 0.00000
											CHANNELS 3 Zrotation Xrotation Yrotation
											JOINT LeftHandThumb3
											{
												OFFSET 2.46977 0.00000 0.00000
												CHANNELS 3 Zrotation Xrotation Yrotation
												End site
												{
													OFFSET 0.00000 0.00000 0.00000
												}
											}
										}
									}
									JOINT LeftHandIndex1
									{
										OFFSET 14.26970 0.00000 2.88139
										CHANNELS 3 Zrotation Xrotation Yrotation
										JOINT LeftHandIndex2
										{
											OFFSET 5.48836 0.00000 0.00000
											CHANNELS 3 Zrotation Xrotation Yrotation
											JOINT LeftHandIndex3
											{
												OFFSET 3.01859 0.00000 0.00000
												CHANNELS 3 Zrotation Xrotation Yrotation
												End site
												{
													OFFSET 0.00000 0.00000 0.00000
												}
											}
										}
									}
									JOINT LeftHandMiddle1
									{
										OFFSET 14.26970 0.00000 -0.09147
										CHANNELS 3 Zrotation Xrotation Yrotation
										JOINT LeftHandMiddle2
										{
											OFFSET 6.17440 0.00000 0.00000
											CHANNELS 3 Zrotation Xrotation Yrotation
											JOINT LeftHandMiddle3
											{
												OFFSET 3.56744 0.00000 0.00000
												CHANNELS 3 Zrotation Xrotation Yrotation
												End site
												{
													OFFSET 0.00000 0.00000 0.00000
												}
											}
										}
									}
									JOINT LeftHandRing1
									{
										OFFSET 12.69180 0.00000 -3.06433
										CHANNELS 3 Zrotation Xrotation Yrotation
										JOINT LeftHandRing2
										{
											OFFSET 5.62556 0.00000 0.00000
											CHANNELS 3 Zrotation Xrotation Yrotation
											JOINT LeftHandRing3
											{
												OFFSET 3.56744 0.00000 0.00000
												CHANNELS 3 Zrotation Xrotation Yrotation
												End site
												{
													OFFSET 0.00000 0.00000 0.00000
												}
											}
										}
									}
									JOINT LeftHandPinky1
									{
										OFFSET 11.11390 0.00000 -6.03719
										CHANNELS 3 Zrotation Xrotation Yrotation
										JOINT LeftHandPinky2
										{
											OFFSET 4.52789 0.00000 0.00000
											CHANNELS 3 Zrotation Xrotation Yrotation
											JOINT LeftHandPinky3
											{
												OFFSET 2.46976 0.00000 0.00000
												CHANNELS 3 Zrotation Xrotation Yrotation
												End site
												{
													OFFSET 0.00000 0.00000 0.00000
												}
											}
										}
									}
								}
							}
						}
					}
					JOINT pCube4
					{
						OFFSET 0.00000 10.91090 1.10792
						CHANNELS 3 Zrotation Xrotation Yrotation
						End site
						{
							OFFSET 0.00000 0.00000 0.00000
						}
					}
				}
			}
		}
	}
	JOINT RightUpLeg
	{
		OFFSET -9.98441 0.00000 0.00000
		CHANNELS 3 Zrotation Xrotation Yrotation
		JOINT RightLeg
		{
			OFFSET 0.00000 -42.11790 0.00000
			CHANNELS 3 Zrotation Xrotation Yrotation
			JOINT RightFoot
			{
				OFFSET 0.00000 -45.00020 -0.00001
				CHANNELS 3 Zrotation Xrotation Yrotation
				JOINT RightForeFoot
				{
					OFFSET 0.00000 -3.74820 0.00000
					CHANNELS 3 Zrotation Xrotation Yrotation
					JOINT RightToeBase
					{
						OFFSET 0.00000 0.06325 14.43120
						CHANNELS 3 Zrotation Xrotation Yrotation
						End site
						{
							OFFSET 0.00000 0.00000 0.00000
						}
					}
				}
			}
		}
	}
	JOINT LeftUpLeg
	{
		OFFSET 9.98441 0.00000 0.00000
		CHANNELS 3 Zrotation Xrotation Yrotation
		JOINT LeftLeg
		{
			OFFSET 0.00000 -42.11800 0.00000
			CHANNELS 3 Zrotation Xrotation Yrotation
			JOINT LeftFoot
			{
				OFFSET 0.00000 -45.00070 0.00000
				CHANNELS 3 Zrotation Xrotation Yrotation
				JOINT LeftForeFoot
				{
					OFFSET 0.00000 -3.74824 0.00000
					CHANNELS 3 Zrotation Xrotation Yrotation
					JOINT LeftToeBase
					{
						OFFSET 0.00000 0.06325 14.43110
						CHANNELS 3 Zrotation Xrotation Yrotation
						End site
						{
							OFFSET 0.00000 0.00000 0.00000
						}
					}
				}
			}
		}
	}
}
MOTION
Frames: 4
Frame Time: 0.050000
-0.003829994734687286 0.028923406295960376 -0.03589026755778892 -0.013497449507894946 0.031884849335115324 -0.021704213517346166 -3.1908272062001464 2.07355450136754 -0.6231507639611795 -1.0444020570249044 3.847149378932942 0.3982325913545711 -1.0109242327351475 -1.7733133531225058 -2.2562336040031203 -0.8513151710711998 0.5149172694353457 -0.9931929656426094 -2.3006592499400496 13.672807705268841 5.423527997850414 -0.5610213239552733 -0.8608735000702659 11.55778519695683 -2.076137597648315 -16.651987481096366 1.0497018460136704 -3.856445572071066 1.562256546550336 -13.22727268411046 73.05103020313581 20.263656610112022 10.317157531994331 11.555668537448087 5.654775491224642 70.69822639616046 18.178670356209302 -0.38344564980047213 -3.6726905524566784 4.54660429473991 -0.08839055936601159 -1.6303886701017294 0.019966931405400665 0.040910363468586994 -56.230660894633715 0.019457164018647194 0.04992500430873637 -56.273149312760985 -38.759176883138885 0.04894918153968229 0.011587233450885366 0.03727897832601601 -0.03634806201096855 0.021272498517815545 -0.030359713199396846 0.01362310185682877 -0.03585755574848405 -36.73197071162247 -0.035566602221999276 -0.013947511914182415 -0.024607066998727552 -0.04265874397896628 -0.00743889663460627 -0.04738651852353071 -0.003350203592846404 0.04819569047168814 -19.796468985828167 -0.0012716130585140025 0.04117758789849953 0.017963983390262228 0.03241669851234956 -0.004690540384338984 -0.005406476546358108 -0.013894493442670852 0.012348902431334902 24.01859427261964 0.03269416785729559 -0.045090016956903095 28.857202943825094 0.047557413893517655 -0.027040448318487408 28.845312906918583 0.01585142095388212 -0.01783468271026256 10.305922785108123 2.1590567377269583 12.417776899003748 -70.6829849703594 8.445573926156065 -28.6974824917029 -65.42599444734421 9.659466788743831 -92.14396751882589 -7.427651894156073 2.3638303584301887 -2.035311354423036 -0.501951974227736 0.1132869460712653 -8.135312440349944 0.01641831030514929 0.01876983385141306 44.58803671868817 0.04716215645853101 -6.636822587980192e-05 44.600285873265406 12.493421148587906 0.03762118745399341 -0.021000873429862888 -0.008506844112840544 -0.0338004399229201 0.0390344698821527 0.008420315797403086 0.009717566889341474 0.016456070719643907 11.132576971716029 -0.03805954557324577 0.022368471132125638 0.019552431805058258 -0.03082249418181872 0.02327544594927959 -0.027303860262212015 -0.038259256224966884 0.018029756810568898 4.765336473178078 -0.027246993079991726 -0.0018875953028549208 0.039609869881119704 -0.017174294204956565 -0.007024395827493308 0.034326443860971514 -0.024746047115048905 -0.006057829544079546 -5.582956982189981 -0.03215178424982562 0.03195215665263691 -6.747500508026561 -0.02347280227524302 -0.03192357370999737 -6.7057819347337855 0.013671604087754363 0.0036476158398360864 0.044120794660881466 -0.02825789508997877 0.04910502138851673 8.017060105181269 3.532278216100521 -19.240420106970706 -0.025718496637943112 10.409559205748256 0.024465522045841435 -5.615226562810585 -15.674406028899948 3.1703962651091855 -0.03681386041939012 0.012604597015854074 0.000714467995505 0.0012367391529631325 4.6984277558212355 0.0214180302041111 12.410864865276793 -8.27936148942857 6.9202129278883335 -0.029659828738489838 46.356150534703445 -0.016405845398552898 -4.332356366323368 -14.75075853518018 -3.7906774107182346 -0.039841836157093524 -0.04596194544056112 -0.01771817819313491 -0.012324574016771611 -10.778400524180693 -0.015182631563422685 
0.046893089823241266 0.024143135980548236 0.047123067840658076 0.041025377543705915 0.000835862121410155 -0.0029645668997819977 -3.164890521284405 2.1363548974731574 -0.6878664652207447 -1.0899090159696747 3.8135700156446974 0.33968835111385054 -1.0154666823509941 -1.8046029423629657 -2.0952966718844395 -0.7945297591289822 0.5321270286457734 -0.9147628958304502 -2.1205626290564186 13.655639275817274 5.011397805613181 -0.5887151615140167 -0.73295310198022 10.413657078303352 -1.97028645353496 -16.533025887794636 0.9580077005704396 -4.0679525529540905 1.6017690549037855 -13.2324866608667 73.08694920522986 18.473976219199336 11.409857493229813 12.339379831539478 6.012474086145304 71.86417245459795 17.22043383873147 -0.3817213314843373 -3.418786325631443 4.521881870757291 -0.10068009639166323 -1.6140350556444505 0.03340731242335811 -0.013991303821919892 -56.25479647971573 0.03930944554101275 0.018946887652613043 -56.21063685788007 -38.76952128716269 0.011552743697797178 0.017165255710991884 -0.032051138477405774 0.02395262238566596 -0.03495008168417781 0.0155514996248418 -0.021258867434783446 0.03712032840358906 -36.70911599652209 -0.004656667648584449 -0.03546053870748177 0.031883213639100315 -0.010463536941513132 -0.024096198282871628 -0.023211942105809076 -0.037073279259457394 -0.029243329348091804 -19.764593550771874 -0.02154830939823066 0.0196073468054854 0.008833161790070009 0.040702228709427205 -0.007942062498553388 -0.042553645633587406 -0.04455507381361113 -0.019360216463908692 24.049394795650908 0.010271221966836028 0.01490656689500332 28.888726602830243 0.01766156128515894 -0.01931839132191584 28.815614904189015 0.045969005482763184 0.007615361113909264 10.082803564472481 2.1075861050482905 12.442457928378412 -70.53829599326802 8.181783827231047 -28.307279796681826 -64.06624240881814 10.210861135173374 -92.25134880979218 -6.9467566157678355 2.760332471537937 -2.3897446140996994 -0.4763793028237469 0.07541304487946093 -8.081794919898348 0.02135015452696251 0.012699951775068118 44.521649313603554 0.00014604397692104338 -0.030776708783648056 44.52065085403436 12.489112956467308 -0.00532789324331343 -0.00853020455407571 -0.03631033890941891 -0.024868914582145858 0.006234939921739546 -0.0015863251690216539 -0.020567952492666016 0.028045511262275384 11.148294722603882 0.005634031884315749 0.036111963833442624 0.00037194230905880356 0.0440348373707239 0.020036389267637122 0.0253944528679246 -0.04129777920801927 0.04514485769378454 4.761530698487976 -0.04449875884642187 -0.018091336627635263 -0.01753992127084279 0.027450308987632618 -0.02640036451995049 0.03947106242979378 -0.023970431208893254 0.0007682212198382469 -5.614923338906471 -0.017745248748736748 -0.03498319200803459 -6.7122507000276626 0.04905451539288522 0.028744505624518617 -6.691227977939955 0.015403872342746162 -0.018625961433546764 0.04301490582124771 0.023672531318965188 0.044969022714376215 8.005192310505121 3.4867261469705535 -19.26540175477519 0.01596311341869447 10.405519600322851 0.018417327565428333 -5.578478933811551 -15.633413872023121 3.164291239423824 -0.02159470977721777 -0.04357042109691292 0.02760955883070762 0.006560885440122053 4.709262882063805 0.04050545216801482 12.434717338681908 -8.19171598055593 6.8372163372874315 0.04628444147104571 46.42073099851492 0.024706298435573138 -4.3479416189232465 -14.711368748220583 -3.8228605350207645 0.012134546092898681 -0.019596333768361566 0.030411042656432248 0.02835408044280297 -10.741223042460069 0.020777805186171214 
-0.0020415602762460633 0.04060178896603998 -0.03144150402313414 -0.034898369649949225 0.005673916942890081 -0.019646155756330566 -3.12106942052212 2.1405686682628993 -0.6658647490538222 -1.0520701154517982 3.8679250272130523 0.35323367043630133 -1.0074449057878074 -1.8043832019324146 -1.9397467306537364 -0.7068985817359861 0.49806959794101147 -0.9131040520346361 -2.0096756910558615 13.692655112745623 4.522888240579996 -0.5668573936143977 -0.7423643494150195 9.20628714978928 -1.7937525456731913 -16.50613531355897 0.8097024690694631 -4.308766008745554 1.693303798803431 -13.347218461109424 72.99915659987103 16.92981242830662 12.190647777153757 12.90145349425521 6.034988356765409 72.22245855623963 16.30690343379684 -0.33716182797028316 -3.085748023882893 4.569235476561842 -0.15504368807782754 -1.6155541628241201 0.0430279365093356 -0.03467244197737748 -56.1969985394794 -0.04405971018379495 -0.030594995995782904 -56.25124048937993 -38.765437430415226 -0.013488100856441258 0.03306219176565852 0.002193256782079835 -0.04429457919333241 -0.049967061580848855 -0.036586098990741646 -0.007827994361932593 0.0007706619371031399 -36.69737271925823 0.045450450382250665 -6.207729926786794e-05 0.04825886724679058 0.03141098215689779 -0.01575335959384757 -0.022034135382501974 -0.04037087710493246 -0.005235718728660964 -19.746864976823204 -0.006878683218288065 0.018901575990774425 0.011601732405492062 0.036392410535625315 0.04158416828947783 0.0016565611891443807 0.013900663123116726 -0.02533075237594028 24.030690449770127 0.01766068487432058 0.004845106614440681 28.860348773908807 -0.04978651883511194 0.014731875623738906 28.829009026922726 0.014703637549588046 -0.030630368517259293 9.866010252539564 2.064131499187669 12.4203277790841 -70.13162171879462 8.844173394482917 -27.643444560024914 -60.85420575217709 10.551196526070996 -91.06722588163238 -6.62612344064964 2.98020797585098 -2.5182180752614256 -0.46070928822488255 0.023751834109082798 -8.147703797267159 -0.021320092626495802 0.03154576539070729 44.52230092038761 0.02517392174028714 -0.010222078173693003 44.59612679152319 12.491711259921283 0.0031569113651069665 0.02753177480401145 0.011875580957343798 -0.03526831706096502 -0.04544614468001615 0.004997212630752792 -0.022315997204473616 -0.014792161767569686 11.126892680913818 0.023962259366720463 -0.0013958341753025996 0.005685786798980057 0.021481600591268534 0.017846229062632498 -0.04137728560703571 -0.02165837614917248 0.007302588936331671 4.759711498644066 0.018524541665804955 -0.028293659220138382 -0.03243544209530618 -0.00727276594441104 0.04113828798297298 0.02053921895190736 0.021004160668637493 -0.024175646947583205 -5.575426923074933 -0.04548202120169744 0.014241038019763107 -6.688817737698623 0.01653978077607095 -0.03239873563632694 -6.745533452203754 0.03138459682020844 -0.012931012503628521 0.0421428672025721 0.03604684932551082 -0.03848128633797421 8.033082584681928 3.481790571506238 -19.20841985651744 -0.04030939972345245 10.381136562509516 -0.003032346383183407 -5.5720858518945855 -15.686229659362517 3.235772067001785 0.00548417357754008 -0.020189583440088633 0.002562926965841818 -0.012718391812365903 4.698665637888801 0.0034280080517436725 12.507069490146367 -8.242147354903036 6.848387644491761 -0.021304375568195543 46.36642724415123 0.028242241132922702 -4.321499725026884 -14.751625597751843 -3.786107070626054 0.0006412875198545405 -0.005180038085528091 0.021989475370989584 0.017789177349636164 -10.712803414810347 -0.0015833551206900444 
0.005844318291909149 0.024905941653506028 -0.04249545013851514 -0.04486689203228237 -0.003230313751488971 -0.04629178871359943 -3.0310035962294384 2.141640731188536 -0.6894240643565949 -1.0499835646983648 3.826712158805201 0.34069760123888526 -1.0538536602427304 -1.7714679344617708 -1.8766478978702965 -0.6757924869952464 0.4946761458871019 -0.9105107991898607 -1.8209231278804399 13.71148471889137 4.138755181213279 -0.5172648706272952 -0.72032214773197 8.223544688300219 -1.7015361220445968 -16.44059632143853 0.7826299909362827 -4.50847984511889 1.7615182287767475 -13.396247680040386 72.92376386690387 16.493196343638857 12.176403030757267 12.05559921461814 5.7933480362110155 69.86950406506126 15.58027935623076 -0.29161416913110655 -2.630380443777568 4.518857143027927 -0.15463332522339335 -1.6170862297065445 0.004164332632651353 0.03704548897282833 -56.27765451452684 0.018916455700638216 0.023929914627633917 -56.274035428423616 -38.80735886932333 0.04056046302583667 -0.03607429651409512 0.0034312111059894824 -0.0021090015461828 0.018073344728079355 0.010826603633442337 -0.010201415832462457 0.007753040751646331 -36.66230683432323 -0.03394389746949328 0.006878786768545181 -0.04272680846713609 0.014418583353436832 -0.018577549527215454 0.005084404160894657 -0.034350954194714435 -0.0022951282524985824 -19.72930512117821 0.01150068769483519 0.0438006695275007 0.01823078647828945 -0.045971629846569474 -0.017920976464597584 0.04472243641120619 -0.034003210175879074 0.0068749818248384385 24.054870331780105 -0.01012463585079653 -0.04618731739310486 28.859276866766447 -0.023945154874609898 0.04118195385290249 28.820890852846624 0.04480319648328527 -0.03406421131890224 9.731599481666853 2.044859411429621 12.46846737216846 -69.88031653368093 9.786923641553546 -26.862843444434997 -56.59933346323331 11.028945281721683 -88.4364854080385 -6.312287745748349 3.0191620873469516 -2.476579290648985 -0.45058310631476634 0.06583238308104504 -8.10245833088451 -0.023680295370890742 -0.00014097558889305755 44.52623850087767 0.013117443552781395 -0.003065596679691979 44.583375819203944 12.48679873847873 0.03974519557609263 0.015709042846470622 0.016040108792229366 -0.016614815871212003 -0.00790877076487235 -0.017403800320342562 -0.03836086860310921 0.015048568145542007 11.099423562613477 0.008898523212008834 -0.025377502004876363 -0.013107100744450416 0.017519488472176183 0.030817772772616714 -0.03725931406130031 -0.000480865787862939 0.008589193088759467 4.740062400890123 0.016548439526413595 0.023621870564027522 -0.028120009190988515 -0.042058904448851506 -0.039677556074822644 0.007413799153693207 0.039983840671090155 0.016275801235377203 -5.6326473412576545 0.0005716428612567494 0.0007255303235704456 -6.7657386746609465 -0.03647184246727292 0.004716431081191758 -6.710404407117302 -0.01762856747376204 -0.03317554116306937 0.015451230462073674 -0.009688147343107922 0.04684453176009694 8.080572092509057 3.461571568692606 -19.209109995966056 0.04248018849602696 10.39515618017753 -0.018297757324809292 -5.65998817625866 -15.697129305104998 3.1923943128178625 -0.027812785830878525 -0.028657637140692232 0.021103468653406024 -0.030316481399425915 4.661837908799788 0.04283726417210981 12.501746791917528 -8.24658055172371 6.84076471149449 0.03441014283259038 46.42281136310535 0.01213848333256079 -4.289144691791383 -14.706497670387837 -3.8365037477521926 0.049938571526044195 0.008576345595191874 -0.000809040949631147 -0.023221277916941806 -10.716354950670516 -1.5188046241128835e-05 
